<svg width="44" height="44" viewBox="0 0 44 44" fill="none" xmlns="http://www.w3.org/2000/svg">
<rect width="44" height="44" rx="4" fill="#F6FFF9"/>
<path d="M22 29C24.2091 29 26 27.2091 26 25C26 22.7909 24.2091 21 22 21C19.7909 21 18 22.7909 18 25C18 27.2091 19.7909 29 22 29Z" stroke="#009254" stroke-width="1.5" stroke-miterlimit="10" stroke-linecap="round" stroke-linejoin="round"/>
<path d="M20.44 25L21.09 25.65C21.28 25.84 21.59 25.85 21.78 25.66L23.56 24.02" stroke="#009254" stroke-width="1.5" stroke-linecap="round" stroke-linejoin="round"/>
<path d="M19 32H25C29.02 32 29.74 30.39 29.95 28.43L30.7 22.43C30.97 19.99 30.27 18 26 18H18C13.73 18 13.03 19.99 13.3 22.43L14.05 28.43C14.26 30.39 14.98 32 19 32Z" stroke="#009254" stroke-width="1.5" stroke-miterlimit="10" stroke-linecap="round" stroke-linejoin="round"/>
<path d="M17.5 17.67V16.7C17.5 14.45 19.31 12.24 21.56 12.03C24.24 11.77 26.5 13.88 26.5 16.51V17.89" stroke="#009254" stroke-width="1.5" stroke-miterlimit="10" stroke-linecap="round" stroke-linejoin="round"/>
</svg>
