<svg width="69" height="69" viewBox="0 0 69 69" fill="none" xmlns="http://www.w3.org/2000/svg">
<path d="M46.6285 26.6216C46.826 26.8189 46.9828 27.0533 47.0897 27.3113C47.1966 27.5692 47.2517 27.8457 47.2517 28.125C47.2517 28.4043 47.1966 28.6808 47.0897 28.9387C46.9828 29.1967 46.826 29.4311 46.6285 29.6284L31.7535 44.5034C31.5561 44.701 31.3217 44.8578 31.0638 44.9647C30.8058 45.0716 30.5293 45.1267 30.25 45.1267C29.9708 45.1267 29.6942 45.0716 29.4363 44.9647C29.1783 44.8578 28.9439 44.701 28.7466 44.5034L22.3716 38.1284C21.9728 37.7297 21.7488 37.1889 21.7488 36.625C21.7488 36.0611 21.9728 35.5203 22.3716 35.1216C22.7703 34.7228 23.3111 34.4988 23.875 34.4988C24.4389 34.4988 24.9797 34.7228 25.3785 35.1216L30.25 39.9958L43.6216 26.6216C43.8189 26.424 44.0533 26.2673 44.3113 26.1603C44.5692 26.0534 44.8458 25.9983 45.125 25.9983C45.4043 25.9983 45.6808 26.0534 45.9388 26.1603C46.1967 26.2673 46.4311 26.424 46.6285 26.6216ZM62.125 34.5C62.125 39.9637 60.5048 45.3047 57.4694 49.8476C54.4339 54.3905 50.1194 57.9313 45.0716 60.0222C40.0238 62.113 34.4694 62.6601 29.1106 61.5942C23.7519 60.5283 18.8296 57.8973 14.9662 54.0338C11.1028 50.1704 8.47174 45.2481 7.40582 39.8894C6.3399 34.5306 6.88697 28.9762 8.97784 23.9284C11.0687 18.8806 14.6095 14.5661 19.1524 11.5307C23.6953 8.49518 29.0363 6.875 34.5 6.875C41.8242 6.88273 48.8463 9.7957 54.0253 14.9747C59.2043 20.1537 62.1173 27.1758 62.125 34.5ZM57.875 34.5C57.875 29.8769 56.5041 25.3575 53.9356 21.5135C51.3671 17.6695 47.7165 14.6735 43.4452 12.9043C39.174 11.1351 34.4741 10.6722 29.9398 11.5741C25.4055 12.4761 21.2404 14.7023 17.9714 17.9714C14.7023 21.2404 12.4761 25.4055 11.5742 29.9398C10.6722 34.4741 11.1351 39.174 12.9043 43.4452C14.6735 47.7164 17.6696 51.3671 21.5136 53.9356C25.3576 56.5041 29.8769 57.875 34.5 57.875C40.6973 57.868 46.6387 55.403 51.0209 51.0209C55.403 46.6387 57.868 40.6973 57.875 34.5Z" fill="#009982"/>
</svg>
