<svg width="17" height="16" viewBox="0 0 17 16" fill="none" xmlns="http://www.w3.org/2000/svg">
<path d="M4.5 6.66667V5.33333C4.5 3.12667 5.16667 1.33333 8.5 1.33333C11.8333 1.33333 12.5 3.12667 12.5 5.33333V6.66667" stroke="#8B9298" stroke-width="1.5" stroke-linecap="round" stroke-linejoin="round"/>
<path d="M8.49992 12.3333C9.42039 12.3333 10.1666 11.5871 10.1666 10.6667C10.1666 9.74619 9.42039 9 8.49992 9C7.57944 9 6.83325 9.74619 6.83325 10.6667C6.83325 11.5871 7.57944 12.3333 8.49992 12.3333Z" stroke="#8B9298" stroke-width="1.5" stroke-linecap="round" stroke-linejoin="round"/>
<path d="M11.8333 14.6667L5.16659 14.6667C2.49992 14.6667 1.83325 14 1.83325 11.3333L1.83325 10C1.83325 7.33333 2.49992 6.66667 5.16659 6.66667L11.8333 6.66667C14.4999 6.66667 15.1666 7.33333 15.1666 10V11.3333C15.1666 14 14.4999 14.6667 11.8333 14.6667Z" stroke="#8B9298" stroke-width="1.5" stroke-linecap="round" stroke-linejoin="round"/>
</svg>
