<svg width="4" height="16" viewBox="0 0 4 16" fill="none" xmlns="http://www.w3.org/2000/svg">
<path d="M1.99994 8.8335C2.46018 8.8335 2.83328 8.4604 2.83328 8.00016C2.83328 7.53993 2.46018 7.16683 1.99994 7.16683C1.53971 7.16683 1.16661 7.53993 1.16661 8.00016C1.16661 8.4604 1.53971 8.8335 1.99994 8.8335Z" stroke="#98A2B3" stroke-width="1.66667" stroke-linecap="round" stroke-linejoin="round"/>
<path d="M1.99994 3.00016C2.46018 3.00016 2.83328 2.62707 2.83328 2.16683C2.83328 1.70659 2.46018 1.3335 1.99994 1.3335C1.53971 1.3335 1.16661 1.70659 1.16661 2.16683C1.16661 2.62707 1.53971 3.00016 1.99994 3.00016Z" stroke="#98A2B3" stroke-width="1.66667" stroke-linecap="round" stroke-linejoin="round"/>
<path d="M1.99994 14.6668C2.46018 14.6668 2.83328 14.2937 2.83328 13.8335C2.83328 13.3733 2.46018 13.0002 1.99994 13.0002C1.53971 13.0002 1.16661 13.3733 1.16661 13.8335C1.16661 14.2937 1.53971 14.6668 1.99994 14.6668Z" stroke="#98A2B3" stroke-width="1.66667" stroke-linecap="round" stroke-linejoin="round"/>
</svg>
