<svg width="40" height="40" viewBox="0 0 40 40" fill="none" xmlns="http://www.w3.org/2000/svg">
<rect width="40" height="40" rx="20" fill="#F8FCF8"/>
<path d="M20 18.2667C19.9699 18.2667 19.9386 18.2544 19.9129 18.2287C19.8873 18.2031 19.875 18.1718 19.875 18.1417V15.3667C19.875 15.3365 19.8873 15.3052 19.9129 15.2796C19.9386 15.254 19.9699 15.2417 20 15.2417C20.0301 15.2417 20.0614 15.254 20.0871 15.2796C20.1127 15.3052 20.125 15.3365 20.125 15.3667V18.1417C20.125 18.2112 20.0699 18.2667 20 18.2667Z" fill="#004C11" stroke="#004C11"/>
<path d="M14.0479 20.9317L14.048 20.9317C14.3488 20.4374 14.5917 19.5528 14.5917 18.9667V17.2167C14.5917 14.2238 17.0239 11.7917 20.0167 11.7917C23.0104 11.7917 25.4409 14.2244 25.4501 17.2235L25.4501 17.225L25.4501 18.975C25.4501 19.5611 25.6929 20.4457 25.9938 20.94L25.9957 20.943L25.9956 20.943L27.054 22.7097L27.0557 22.7127L27.0557 22.7127C27.3186 23.1584 27.3828 23.6982 27.1941 24.1981C27.0158 24.6926 26.6246 25.0695 26.123 25.2333C26.1225 25.2334 26.122 25.2336 26.1215 25.2338L25.9667 24.7583L14.0479 20.9317ZM14.0479 20.9317L14.0456 20.9356M14.0479 20.9317L14.0456 20.9356M14.0456 20.9356L12.9889 22.7079M14.0456 20.9356L12.9889 22.7079M12.9889 22.7079C12.9886 22.7084 12.9883 22.7089 12.988 22.7093L12.9889 22.7079ZM13.8421 25.4592L13.8399 25.4585C13.214 25.2521 12.7626 24.8142 12.5696 24.2865C12.3755 23.7561 12.4336 23.1297 12.7706 22.5653C12.7707 22.5653 12.7707 22.5653 12.7707 22.5652C12.7708 22.5651 12.7708 22.565 12.7709 22.5648L13.829 20.7986L13.8296 20.7976C13.9767 20.5507 14.1017 20.2241 14.1898 19.9101C14.2778 19.5966 14.3417 19.2501 14.3417 18.9583V17.2083C14.3417 14.0761 16.8845 11.5333 20.0167 11.5333C23.1489 11.5333 25.6917 14.0761 25.6917 17.2083V18.9583C25.6917 19.2463 25.7558 19.5928 25.8435 19.9065C25.9314 20.2208 26.0563 20.55 26.2038 20.7976L26.2045 20.7986L27.2628 22.5653L27.2635 22.5664C27.5753 23.0838 27.6298 23.7007 27.422 24.2703C27.2172 24.832 26.7672 25.265 26.1903 25.4595L26.1896 25.4598C24.2024 26.133 22.1152 26.4583 20.0167 26.4583C17.9196 26.4583 15.8316 26.125 13.8421 25.4592Z" fill="#292D32" stroke="#004C11"/>
<path d="M20 29.0833C19.1083 29.0833 18.2333 28.7167 17.6 28.0833C16.9666 27.45 16.6 26.575 16.6 25.6833H17.85C17.85 26.25 18.0833 26.8 18.4833 27.2C18.8833 27.6 19.4333 27.8333 20 27.8333C21.1833 27.8333 22.15 26.8667 22.15 25.6833H23.4C23.4 27.5583 21.875 29.0833 20 29.0833Z" fill="#004C11"/>
</svg>
