<svg width="49" height="49" viewBox="0 0 49 49" fill="none" xmlns="http://www.w3.org/2000/svg">
<path d="M24.5 35.2002C26.3004 35.2002 27.76 33.7406 27.76 31.9402C27.76 30.1397 26.3004 28.6802 24.5 28.6802C22.6996 28.6802 21.24 30.1397 21.24 31.9402C21.24 33.7406 22.6996 35.2002 24.5 35.2002Z" fill="#1CA157"/>
<path d="M37.06 19.56V17.06C37.06 11.66 35.76 4.5 24.5 4.5C13.24 4.5 11.94 11.66 11.94 17.06V19.56C6.34 20.26 4.5 23.1 4.5 30.08V33.8C4.5 42 7 44.5 15.2 44.5H33.8C42 44.5 44.5 42 44.5 33.8V30.08C44.5 23.1 42.66 20.26 37.06 19.56ZM24.5 37.98C21.16 37.98 18.46 35.26 18.46 31.94C18.46 28.6 21.18 25.9 24.5 25.9C27.82 25.9 30.54 28.62 30.54 31.94C30.54 35.28 27.84 37.98 24.5 37.98ZM15.2 19.38C15.04 19.38 14.9 19.38 14.74 19.38V17.06C14.74 11.2 16.4 7.3 24.5 7.3C32.6 7.3 34.26 11.2 34.26 17.06V19.4C34.1 19.4 33.96 19.4 33.8 19.4H15.2V19.38Z" fill="#1CA157"/>
</svg>
