<svg width="49" height="48" viewBox="0 0 49 48" fill="none" xmlns="http://www.w3.org/2000/svg">
<path d="M37.5796 8.24005L26.5796 4.12005C25.4396 3.70005 23.5796 3.70005 22.4396 4.12005L11.4396 8.24005C9.31961 9.04005 7.59961 11.5201 7.59961 13.7801V29.9801C7.59961 31.6001 8.65961 33.7401 9.95961 34.7001L20.9596 42.9201C22.8996 44.3801 26.0796 44.3801 28.0196 42.9201L39.0196 34.7001C40.3196 33.7201 41.3796 31.6001 41.3796 29.9801V13.7801C41.3996 11.5201 39.6796 9.04005 37.5796 8.24005ZM31.4596 19.4401L22.8596 28.0401C22.5596 28.3401 22.1796 28.4801 21.7996 28.4801C21.4196 28.4801 21.0396 28.3401 20.7396 28.0401L17.5396 24.8001C16.9596 24.2201 16.9596 23.2601 17.5396 22.6801C18.1196 22.1001 19.0796 22.1001 19.6596 22.6801L21.8196 24.8401L29.3596 17.3001C29.9396 16.7201 30.8996 16.7201 31.4796 17.3001C32.0596 17.8801 32.0596 18.8601 31.4596 19.4401Z" fill="#009982"/>
</svg>
